<svg xmlns="http://www.w3.org/2000/svg" viewBox="0 0 32 32" width="32" height="32">
  <!-- Apple logo silhouette -->
  <path d="M16 2c-2.5 0-4.5 1.5-5.5 3.5-1 2-1 4.5 0 6.5 1 2 3 3.5 5.5 3.5s4.5-1.5 5.5-3.5c1-2 1-4.5 0-6.5C20.5 3.5 18.5 2 16 2z" fill="#1a1a1a"/>
  <path d="M16 8c-1.5 0-2.5-1-2.5-2.5S14.5 3 16 3s2.5 1 2.5 2.5S17.5 8 16 8z" fill="#ffffff"/>
  
  <!-- Play button overlay -->
  <circle cx="16" cy="16" r="8" fill="rgba(26, 26, 26, 0.8)"/>
  <path d="M13 11l6 5-6 5V11z" fill="#ffffff"/>
  
  <!-- Multiple layers indicator -->
  <circle cx="24" cy="8" r="2" fill="#1a1a1a" opacity="0.6"/>
  <circle cx="26" cy="10" r="2" fill="#1a1a1a" opacity="0.4"/>
</svg>
